<?xml version="1.0" encoding="UTF-8"?>
<!DOCTYPE svg PUBLIC "-//W3C//DTD SVG 1.1//EN" "http://www.w3.org/Graphics/SVG/1.1/DTD/svg11.dtd">
<svg xmlns="http://www.w3.org/2000/svg" version="1.1" width="128px" height="128px" style="shape-rendering:geometricPrecision; text-rendering:geometricPrecision; image-rendering:optimizeQuality; fill-rule:evenodd; clip-rule:evenodd" xmlns:xlink="http://www.w3.org/1999/xlink">
<g><path style="opacity:1" fill="#6893f2" d="M 77.5,44.5 C 77.5,45.8333 77.5,47.1667 77.5,48.5C 74.4648,47.2665 71.4648,47.2665 68.5,48.5C 66.4687,48.0276 64.8021,47.0276 63.5,45.5C 67.97,44.5139 72.6367,44.1805 77.5,44.5 Z"/></g>
<g><path style="opacity:1" fill="#6785f1" d="M 77.5,44.5 C 79.7354,44.2053 81.7354,44.5386 83.5,45.5C 83.5481,48.1806 82.8815,51.014 81.5,54C 83.5127,55.7913 83.5127,57.1247 81.5,58C 83.5127,58.8753 83.5127,60.2087 81.5,62C 83.5127,62.8753 83.5127,64.2087 81.5,66C 83.5828,67.3204 83.2494,68.6538 80.5,70C 82.0362,71.4681 82.3696,72.9681 81.5,74.5C 79.8333,74.5 78.1667,74.5 76.5,74.5C 76.7135,72.8561 76.3802,71.3561 75.5,70C 78.1667,69.3333 78.1667,68.6667 75.5,68C 76.8333,67.3333 76.8333,66.6667 75.5,66C 78.1667,65.3333 78.1667,64.6667 75.5,64C 76.1667,63 76.8333,62 77.5,61C 77.5,58.3333 77.5,55.6667 77.5,53C 75.6183,52.8019 73.9516,52.3019 72.5,51.5C 74.1667,51.5 75.8333,51.5 77.5,51.5C 77.5,50.5 77.5,49.5 77.5,48.5C 77.5,47.1667 77.5,45.8333 77.5,44.5 Z"/></g>
<g><path style="opacity:1" fill="#667cf1" d="M 83.5,45.5 C 84.8333,46.1667 85.8333,47.1667 86.5,48.5C 87.6774,50.0315 89.0107,51.5315 90.5,53C 89.7607,57.7492 89.7607,62.2492 90.5,66.5C 90.5,66.8333 90.5,67.1667 90.5,67.5C 90.1667,67.5 89.8333,67.5 89.5,67.5C 88.7611,67.369 88.0944,67.5357 87.5,68C 88.4231,70.0408 88.7564,72.2075 88.5,74.5C 86.1667,74.5 83.8333,74.5 81.5,74.5C 82.3696,72.9681 82.0362,71.4681 80.5,70C 83.2494,68.6538 83.5828,67.3204 81.5,66C 83.5127,64.2087 83.5127,62.8753 81.5,62C 83.5127,60.2087 83.5127,58.8753 81.5,58C 83.5127,57.1247 83.5127,55.7913 81.5,54C 82.8815,51.014 83.5481,48.1806 83.5,45.5 Z"/></g>
<g><path style="opacity:1" fill="#6aacf3" d="M 63.5,45.5 C 64.8021,47.0276 66.4687,48.0276 68.5,48.5C 64.0329,48.1326 59.6996,48.6326 55.5,50C 55.0426,50.414 54.7093,50.914 54.5,51.5C 56.7427,52.4742 59.076,52.8076 61.5,52.5C 59.7078,53.3091 57.7078,53.8091 55.5,54C 55.2543,60.1957 55.5876,65.8624 56.5,71C 55.1772,71.8159 54.5106,72.9826 54.5,74.5C 51.7531,74.8134 49.0865,74.48 46.5,73.5C 47.7111,72.2798 47.7111,71.1131 46.5,70C 49.0959,68.2028 48.7626,66.8695 45.5,66C 46.5,65 47.5,64 48.5,63C 47.8333,62.6667 47.1667,62.3333 46.5,62C 47.5,60.3333 48.5,58.6667 49.5,57C 47.6269,56.0471 47.2935,54.8804 48.5,53.5C 50.04,51.3433 50.7066,49.1766 50.5,47C 54.7514,45.8054 59.0848,45.3054 63.5,45.5 Z"/></g>
<g><path style="opacity:0.934" fill="#6672f1" d="M 86.5,48.5 C 90.6754,49.1356 94.6754,50.1356 98.5,51.5C 97.2089,52.5417 97.2089,53.7083 98.5,55C 97.8333,55.3333 97.1667,55.6667 96.5,56C 97.4711,57.041 98.4711,57.8743 99.5,58.5C 99.5,58.8333 99.5,59.1667 99.5,59.5C 99.1583,60.3382 98.4916,60.6716 97.5,60.5C 97.1667,59.1667 96.8333,59.1667 96.5,60.5C 97.6843,61.6879 97.6843,62.8545 96.5,64C 97.0944,64.4643 97.7611,64.631 98.5,64.5C 93.7314,68.5485 93.3981,72.8819 97.5,77.5C 96.5489,78.9187 96.2155,80.5853 96.5,82.5C 93.1681,80.8658 91.0015,78.1991 90,74.5C 82.9213,75.4799 75.7546,75.8132 68.5,75.5C 68.5,75.1667 68.5,74.8333 68.5,74.5C 68.8333,74.5 69.1667,74.5 69.5,74.5C 71.8333,74.5 74.1667,74.5 76.5,74.5C 78.1667,74.5 79.8333,74.5 81.5,74.5C 83.8333,74.5 86.1667,74.5 88.5,74.5C 88.7564,72.2075 88.4231,70.0408 87.5,68C 88.0944,67.5357 88.7611,67.369 89.5,67.5C 89.8333,68.8333 90.1667,68.8333 90.5,67.5C 90.5,67.1667 90.5,66.8333 90.5,66.5C 89.7607,62.2492 89.7607,57.7492 90.5,53C 89.0107,51.5315 87.6774,50.0315 86.5,48.5 Z"/></g>
<g><path style="opacity:0.993" fill="#69a1f3" d="M 61.5,52.5 C 62.5,52.5 63.5,52.5 64.5,52.5C 63.6091,53.2613 62.9424,54.2613 62.5,55.5C 63.0733,57.3539 63.4066,59.1873 63.5,61C 60.8333,61.6667 60.8333,62.3333 63.5,63C 61.1088,63.6914 61.1088,64.6914 63.5,66C 62.1667,68 62.1667,70 63.5,72C 62.6195,72.7083 61.9528,73.5416 61.5,74.5C 59.1667,74.5 56.8333,74.5 54.5,74.5C 54.5106,72.9826 55.1772,71.8159 56.5,71C 55.5876,65.8624 55.2543,60.1957 55.5,54C 57.7078,53.8091 59.7078,53.3091 61.5,52.5 Z"/></g>
<g><path style="opacity:0.996" fill="#6898f2" d="M 64.5,52.5 C 66.1667,52.5 67.8333,52.5 69.5,52.5C 69.5267,58.4934 69.5267,65.8267 69.5,74.5C 69.1667,74.5 68.8333,74.5 68.5,74.5C 66.1667,74.5 63.8333,74.5 61.5,74.5C 61.9528,73.5416 62.6195,72.7083 63.5,72C 62.1667,70 62.1667,68 63.5,66C 61.1088,64.6914 61.1088,63.6914 63.5,63C 60.8333,62.3333 60.8333,61.6667 63.5,61C 63.4066,59.1873 63.0733,57.3539 62.5,55.5C 62.9424,54.2613 63.6091,53.2613 64.5,52.5 Z"/></g>
<g><path style="opacity:1" fill="#688ef2" d="M 72.5,51.5 C 73.9516,52.3019 75.6183,52.8019 77.5,53C 77.5,55.6667 77.5,58.3333 77.5,61C 76.8333,62 76.1667,63 75.5,64C 78.1667,64.6667 78.1667,65.3333 75.5,66C 76.8333,66.6667 76.8333,67.3333 75.5,68C 78.1667,68.6667 78.1667,69.3333 75.5,70C 76.3802,71.3561 76.7135,72.8561 76.5,74.5C 74.1667,74.5 71.8333,74.5 69.5,74.5C 69.5267,65.8267 69.5267,58.4934 69.5,52.5C 70.391,51.8902 71.391,51.5569 72.5,51.5 Z"/></g>
<g><path style="opacity:0.861" fill="#6ab7f3" d="M 48.5,53.5 C 47.2935,54.8804 47.6269,56.0471 49.5,57C 48.5,58.6667 47.5,60.3333 46.5,62C 47.1667,62.3333 47.8333,62.6667 48.5,63C 47.5,64 46.5,65 45.5,66C 48.7626,66.8695 49.0959,68.2028 46.5,70C 47.7111,71.1131 47.7111,72.2798 46.5,73.5C 49.0865,74.48 51.7531,74.8134 54.5,74.5C 56.8333,74.5 59.1667,74.5 61.5,74.5C 63.8333,74.5 66.1667,74.5 68.5,74.5C 68.5,74.8333 68.5,75.1667 68.5,75.5C 57.1667,75.5 45.8333,75.5 34.5,75.5C 34.5,73.8333 34.5,72.1667 34.5,70.5C 34.8333,70.5 35.1667,70.5 35.5,70.5C 36.7435,75.5732 37.7435,75.2399 38.5,69.5C 37.0977,68.1575 37.4311,67.3242 39.5,67C 38.8333,66.6667 38.1667,66.3333 37.5,66C 38.1667,64.6667 38.8333,63.3333 39.5,62C 39.3346,60.1634 38.668,58.1634 37.5,56C 38.056,55.6174 38.3893,55.1174 38.5,54.5C 41.7644,53.6758 45.0977,53.3424 48.5,53.5 Z"/></g>
<g><path style="opacity:0.972" fill="#6cc5f4" d="M 38.5,54.5 C 38.3893,55.1174 38.056,55.6174 37.5,56C 38.668,58.1634 39.3346,60.1634 39.5,62C 38.8333,63.3333 38.1667,64.6667 37.5,66C 38.1667,66.3333 38.8333,66.6667 39.5,67C 37.4311,67.3242 37.0977,68.1575 38.5,69.5C 37.7435,75.2399 36.7435,75.5732 35.5,70.5C 35.5,69.8333 35.1667,69.5 34.5,69.5C 34.5,69.1667 34.5,68.8333 34.5,68.5C 34.5,67.8333 34.1667,67.5 33.5,67.5C 33.5,67.1667 33.5,66.8333 33.5,66.5C 33.5,65.8333 33.1667,65.5 32.5,65.5C 32.5,64.8333 32.1667,64.5 31.5,64.5C 31.1667,63.1667 30.8333,63.1667 30.5,64.5C 29.8333,64.5 29.5,64.1667 29.5,63.5C 29.1667,62.1667 28.8333,62.1667 28.5,63.5C 27.8333,63.1667 27.1667,62.8333 26.5,62.5C 24.2559,60.3202 24.5892,58.1535 27.5,56C 31.0257,54.6632 34.6924,54.1632 38.5,54.5 Z"/></g>
<g><path style="opacity:0.996" fill="#6564f0" d="M 98.5,51.5 C 102.745,52.7887 106.078,55.2887 108.5,59C 107.833,59.3333 107.167,59.6667 106.5,60C 113.128,63.0906 115.628,68.2573 114,75.5C 110.435,83.2577 104.602,85.5911 96.5,82.5C 96.2155,80.5853 96.5489,78.9187 97.5,77.5C 101.035,79.7512 104.535,79.4179 108,76.5C 111.315,67.4803 108.148,63.4803 98.5,64.5C 97.7611,64.631 97.0944,64.4643 96.5,64C 97.6843,62.8545 97.6843,61.6879 96.5,60.5C 96.8333,60.5 97.1667,60.5 97.5,60.5C 98.4916,60.6716 99.1583,60.3382 99.5,59.5C 107.5,59.1667 107.5,58.8333 99.5,58.5C 98.4711,57.8743 97.4711,57.041 96.5,56C 97.1667,55.6667 97.8333,55.3333 98.5,55C 97.2089,53.7083 97.2089,52.5417 98.5,51.5 Z"/></g>
<g><path style="opacity:0.944" fill="#6bc6f3" d="M 19.5,63.5 C 21.6074,62.5318 23.9407,62.1984 26.5,62.5C 27.1667,62.8333 27.8333,63.1667 28.5,63.5C 28.8333,63.5 29.1667,63.5 29.5,63.5C 29.5,64.1667 29.8333,64.5 30.5,64.5C 30.8333,64.5 31.1667,64.5 31.5,64.5C 32.1667,64.5 32.5,64.8333 32.5,65.5C 33.1667,65.5 33.5,65.8333 33.5,66.5C 33.5,66.8333 33.5,67.1667 33.5,67.5C 34.1667,67.5 34.5,67.8333 34.5,68.5C 34.5,68.8333 34.5,69.1667 34.5,69.5C 34.5,69.8333 34.5,70.1667 34.5,70.5C 34.5,72.1667 34.5,73.8333 34.5,75.5C 33.6069,79.3951 31.2736,82.0618 27.5,83.5C 26.4019,82.603 26.4019,81.7697 27.5,81C 26.7562,79.9614 25.7562,79.4614 24.5,79.5C 30.6797,76.9823 31.6797,73.1489 27.5,68C 25.8659,67.5065 24.1992,67.3398 22.5,67.5C 23.5676,66.5655 24.901,66.2322 26.5,66.5C 26.5,65.5 26.5,64.5 26.5,63.5C 24.1667,63.5 21.8333,63.5 19.5,63.5 Z"/></g>
<g><path style="opacity:1" fill="#6cd1f4" d="M 19.5,63.5 C 21.8333,63.5 24.1667,63.5 26.5,63.5C 26.5,64.5 26.5,65.5 26.5,66.5C 24.901,66.2322 23.5676,66.5655 22.5,67.5C 18.3147,69.9128 17.4813,73.2461 20,77.5C 21.4705,78.2666 22.9705,78.9332 24.5,79.5C 25.7562,79.4614 26.7562,79.9614 27.5,81C 26.4019,81.7697 26.4019,82.603 27.5,83.5C 14.4444,83.5461 10.6111,77.5461 16,65.5C 17.1127,64.695 18.2794,64.0283 19.5,63.5 Z"/></g>
<g><path style="opacity:0.953" fill="#666ff1" d="M 101.5,68.5 C 105.267,70.326 105.433,72.326 102,74.5C 98.897,72.888 98.7304,70.888 101.5,68.5 Z"/></g>
<g><path style="opacity:1" fill="#6ccdf4" d="M 22.5,70.5 C 25.9103,70.3838 27.2436,72.0504 26.5,75.5C 22.065,76.0776 20.7317,74.4109 22.5,70.5 Z"/></g>
</svg>
